<?xml version="1.0" encoding="utf-8"?>
<!-- Generator: Adobe Illustrator 18.0.0, SVG Export Plug-In . SVG Version: 6.00 Build 0)  -->
<!DOCTYPE svg PUBLIC "-//W3C//DTD SVG 1.1//EN" "http://www.w3.org/Graphics/SVG/1.1/DTD/svg11.dtd">
<svg version="1.1" id="Capa_1" xmlns="http://www.w3.org/2000/svg" xmlns:xlink="http://www.w3.org/1999/xlink" x="0px" y="0px"
	 viewBox="0 0 121 60" enable-background="new 0 0 121 60" xml:space="preserve">
<g>
	<g>
		<path fill="#FFFFFF" d="M9.5,23.5c-1-0.4-1.8-0.8-2.6-1.2c-0.8-0.4-1.4-1-2-1.6c-0.5-0.6-1-1.4-1.3-2.2c-0.3-0.9-0.4-1.9-0.4-3.1
			c0-1.5,0.3-2.8,0.8-3.9c0.5-1.1,1.2-2.1,2.1-2.8s2-1.3,3.3-1.7c1.3-0.4,2.7-0.6,4.3-0.6c1.5,0,2.8,0.1,4.1,0.4
			c1.3,0.3,2.6,0.6,4,1.1c-0.2,1.7-0.6,3.3-1.4,4.9c-0.4-0.2-0.9-0.3-1.3-0.5c-0.4-0.2-0.9-0.3-1.4-0.4c-0.5-0.1-1.1-0.2-1.7-0.3
			c-0.6-0.1-1.3-0.1-2.2-0.1c-0.5,0-1,0-1.5,0.1c-0.5,0.1-1,0.2-1.4,0.5c-0.4,0.2-0.7,0.6-1,1s-0.4,1-0.4,1.7c0,0.6,0.1,1.1,0.3,1.4
			c0.2,0.4,0.5,0.7,0.8,1c0.3,0.3,0.7,0.5,1.2,0.7c0.4,0.2,0.9,0.4,1.3,0.5l2.6,1c1.1,0.4,2.1,0.9,3,1.3c0.9,0.5,1.6,1,2.3,1.7
			c0.6,0.7,1.1,1.5,1.4,2.5c0.3,1,0.5,2.1,0.5,3.5c0,1.5-0.3,2.8-0.8,4c-0.5,1.2-1.3,2.2-2.3,3.1c-1,0.9-2.2,1.5-3.7,2
			c-1.5,0.5-3.2,0.7-5.1,0.7c-0.9,0-1.8,0-2.5-0.1c-0.7-0.1-1.5-0.2-2.1-0.3c-0.7-0.1-1.3-0.3-2-0.5c-0.7-0.2-1.3-0.4-2.1-0.7
			c0.1-0.8,0.2-1.7,0.5-2.6c0.2-0.9,0.5-1.8,0.8-2.7c1.2,0.5,2.3,0.9,3.4,1.1c1.1,0.2,2.2,0.4,3.4,0.4c1.8,0,3.2-0.3,4.3-1
			c1-0.7,1.6-1.7,1.6-3.1c0-0.7-0.1-1.3-0.4-1.7c-0.2-0.5-0.6-0.8-0.9-1.2s-0.8-0.6-1.3-0.8c-0.5-0.2-1-0.4-1.5-0.6L9.5,23.5z"/>
		<path fill="#FFFFFF" d="M29.2,6.9c1.1-0.2,2.1-0.3,3.1-0.3c1,0,2.1,0.1,3.2,0.3l0,30.9c-1.1,0.2-2.1,0.3-3.1,0.3
			c-1.1,0-2.1-0.1-3.2-0.3L29.2,6.9z"/>
		<path fill="#FFFFFF" d="M60.1,21.8c1.1-0.2,2.1-0.3,3.1-0.3c1,0,2,0.1,3.1,0.3l0,15.2c-1.5,0.5-3,0.9-4.7,1.1
			c-1.6,0.2-3,0.3-4.2,0.3c-2.5,0-4.7-0.4-6.6-1.2s-3.5-1.9-4.7-3.3c-1.3-1.4-2.2-3.1-2.8-5.1s-0.9-4.1-0.9-6.4c0-2.3,0.3-4.4,1-6.4
			s1.6-3.7,2.9-5.1c1.3-1.4,2.8-2.5,4.6-3.3c1.8-0.8,3.9-1.2,6.2-1.2c1.4,0,2.7,0.1,3.8,0.3c1.2,0.2,2.4,0.5,3.7,1.1
			c-0.1,0.9-0.2,1.7-0.5,2.5c-0.3,0.8-0.6,1.6-0.9,2.5c-1-0.3-1.9-0.6-2.7-0.7c-0.8-0.1-1.7-0.2-2.8-0.2c-2.8,0-4.9,0.9-6.3,2.7
			c-1.5,1.8-2.2,4.4-2.2,8c0,3.5,0.7,6.2,2.2,7.9c1.5,1.7,3.6,2.6,6.4,2.6c0.5,0,0.9,0,1.3-0.1c0.4-0.1,0.7-0.1,1.1-0.2L60.1,21.8z"
			/>
		<path fill="#FFFFFF" d="M73.4,7L91,7c0.2,0.9,0.3,1.7,0.3,2.6c0,0.9-0.1,1.8-0.3,2.7l-11.3,0l0,6.7l8.9,0c0.2,0.9,0.3,1.8,0.3,2.7
			c0,0.9-0.1,1.8-0.3,2.7l-8.9,0l0,8.2l11.6,0c0.2,0.9,0.3,1.7,0.3,2.6c0,0.9-0.1,1.8-0.3,2.7l-17.9,0L73.4,7z"/>
		<path fill="#FFFFFF" d="M103.5,23.6c-1-0.4-1.8-0.8-2.6-1.2c-0.8-0.4-1.4-1-2-1.6c-0.5-0.6-1-1.4-1.3-2.2
			c-0.3-0.9-0.4-1.9-0.4-3.1c0-1.5,0.3-2.8,0.8-3.9c0.5-1.1,1.2-2.1,2.1-2.8c0.9-0.8,2-1.3,3.3-1.7c1.3-0.4,2.7-0.6,4.3-0.6
			c1.5,0,2.8,0.1,4.1,0.4c1.3,0.3,2.6,0.6,4,1.1c-0.2,1.7-0.6,3.3-1.4,4.9c-0.4-0.2-0.9-0.3-1.3-0.5c-0.4-0.2-0.9-0.3-1.4-0.4
			c-0.5-0.1-1.1-0.2-1.7-0.3c-0.6-0.1-1.3-0.1-2.2-0.1c-0.5,0-1,0-1.5,0.1c-0.5,0.1-1,0.2-1.4,0.5c-0.4,0.2-0.7,0.6-1,1
			s-0.4,1-0.4,1.7c0,0.6,0.1,1.1,0.3,1.4c0.2,0.4,0.5,0.7,0.8,1c0.3,0.3,0.7,0.5,1.2,0.7c0.4,0.2,0.9,0.4,1.3,0.5l2.6,1
			c1.1,0.4,2.1,0.9,3,1.3c0.9,0.5,1.6,1,2.3,1.7c0.6,0.7,1.1,1.5,1.4,2.5c0.3,1,0.5,2.1,0.5,3.5c0,1.5-0.3,2.8-0.8,4
			c-0.5,1.2-1.3,2.2-2.3,3.1c-1,0.9-2.2,1.5-3.7,2c-1.5,0.5-3.2,0.7-5.1,0.7c-0.9,0-1.8,0-2.5-0.1c-0.7-0.1-1.5-0.2-2.1-0.3
			c-0.7-0.1-1.3-0.3-2-0.5c-0.7-0.2-1.3-0.4-2.1-0.7c0.1-0.8,0.2-1.7,0.5-2.6c0.2-0.9,0.5-1.8,0.8-2.7c1.2,0.5,2.3,0.9,3.4,1.1
			c1.1,0.2,2.2,0.4,3.4,0.4c1.8,0,3.2-0.3,4.3-1c1-0.7,1.6-1.7,1.6-3.1c0-0.7-0.1-1.3-0.4-1.7c-0.2-0.5-0.6-0.8-0.9-1.2
			s-0.8-0.6-1.3-0.8c-0.5-0.2-1-0.4-1.5-0.6L103.5,23.6z"/>
	</g>
	<g>
		<path fill="#CAC8C7" d="M1.9,48.6c0.2,0.1,0.3,0.1,0.5,0.2c0.2,0,0.4,0.1,0.7,0.1c0.4,0,0.7-0.1,0.9-0.3c0.2-0.2,0.3-0.4,0.3-0.7
			c0-0.1,0-0.3-0.1-0.4c0-0.1-0.1-0.2-0.2-0.3c-0.1-0.1-0.2-0.1-0.3-0.2c-0.1-0.1-0.3-0.1-0.4-0.2l-0.4-0.2
			c-0.1-0.1-0.3-0.1-0.4-0.2c-0.1-0.1-0.2-0.2-0.3-0.3S2,46,1.9,45.9c0-0.1-0.1-0.3-0.1-0.5c0-0.5,0.2-0.8,0.5-1.1
			c0.3-0.3,0.7-0.4,1.3-0.4c0.2,0,0.5,0,0.7,0.1s0.4,0.1,0.6,0.1c0,0.2-0.1,0.4-0.2,0.6c-0.1,0-0.3-0.1-0.5-0.1s-0.4-0.1-0.6-0.1
			c-0.3,0-0.6,0.1-0.7,0.2s-0.3,0.3-0.3,0.6c0,0.1,0,0.2,0.1,0.3c0,0.1,0.1,0.2,0.2,0.2C2.9,45.9,3,45.9,3.1,46
			c0.1,0,0.2,0.1,0.3,0.1l0.4,0.2c0.2,0.1,0.4,0.2,0.5,0.3s0.3,0.2,0.4,0.3C4.9,47,5,47.1,5,47.3c0.1,0.2,0.1,0.3,0.1,0.6
			c0,0.5-0.2,0.9-0.5,1.2c-0.4,0.3-0.8,0.4-1.5,0.4c-0.2,0-0.3,0-0.4,0c-0.1,0-0.2,0-0.3,0c-0.1,0-0.2,0-0.3-0.1
			c-0.1,0-0.2-0.1-0.3-0.1c0-0.1,0-0.2,0.1-0.3C1.8,48.8,1.8,48.7,1.9,48.6z"/>
		<path fill="#CAC8C7" d="M6.7,46.1H6.2c0,0,0-0.1,0-0.1c0-0.1,0-0.1,0-0.2s0-0.1,0-0.2c0-0.1,0-0.1,0-0.1h1.2v3.8
			c-0.1,0-0.1,0-0.2,0c-0.1,0-0.1,0-0.2,0c0,0-0.1,0-0.2,0c-0.1,0-0.1,0-0.2,0V46.1z M6.5,44.7c0-0.1,0-0.1,0-0.2c0-0.1,0-0.1,0-0.2
			s0-0.1,0-0.2c0-0.1,0-0.1,0-0.2c0.1,0,0.1,0,0.2,0c0.1,0,0.1,0,0.2,0s0.1,0,0.2,0c0.1,0,0.1,0,0.2,0c0,0.1,0,0.1,0,0.2
			c0,0.1,0,0.1,0,0.2s0,0.1,0,0.2c0,0.1,0,0.1,0,0.2c-0.1,0-0.1,0-0.2,0s-0.1,0-0.2,0c-0.1,0-0.1,0-0.2,0
			C6.7,44.7,6.6,44.7,6.5,44.7z"/>
		<path fill="#CAC8C7" d="M9,48.7c0.1,0.1,0.3,0.1,0.4,0.1c0.2,0,0.3,0,0.5,0c0.1,0,0.2,0,0.3,0c0.1,0,0.2-0.1,0.3-0.1
			c0.1,0,0.1-0.1,0.2-0.2c0-0.1,0.1-0.2,0.1-0.2c0-0.1,0-0.2-0.1-0.2c0-0.1-0.1-0.1-0.1-0.2c-0.1,0-0.1-0.1-0.2-0.1
			c-0.1,0-0.2-0.1-0.3-0.1l-0.3-0.1c-0.3-0.1-0.5-0.3-0.7-0.4C9,47,8.9,46.8,8.9,46.6c0-0.3,0.1-0.6,0.4-0.8
			c0.2-0.2,0.6-0.3,1.1-0.3c0.2,0,0.4,0,0.6,0.1c0.2,0,0.3,0.1,0.5,0.1c0,0.1,0,0.2-0.1,0.3s-0.1,0.2-0.1,0.3
			c-0.1,0-0.2-0.1-0.4-0.1c-0.2,0-0.3-0.1-0.5-0.1c-0.2,0-0.3,0-0.5,0.1s-0.2,0.2-0.2,0.3c0,0.1,0,0.2,0.1,0.2s0.1,0.1,0.1,0.2
			c0.1,0,0.1,0.1,0.2,0.1c0.1,0,0.2,0.1,0.3,0.1l0.3,0.1c0.1,0,0.2,0.1,0.3,0.1c0.1,0.1,0.2,0.1,0.3,0.2c0.1,0.1,0.1,0.2,0.2,0.3
			c0,0.1,0.1,0.3,0.1,0.4c0,0.2,0,0.4-0.1,0.5c-0.1,0.2-0.2,0.3-0.3,0.4c-0.1,0.1-0.3,0.2-0.5,0.3c-0.2,0.1-0.4,0.1-0.6,0.1
			c-0.2,0-0.4,0-0.6,0S9,49.4,8.8,49.3c0-0.1,0-0.2,0.1-0.3C8.9,48.9,8.9,48.8,9,48.7z"/>
		<path fill="#CAC8C7" d="M13,46.2h-0.6l0-0.1l1.3-1.4h0.1v0.9h1c0,0.1,0,0.2,0,0.3c0,0.1,0,0.1,0,0.2c0,0,0,0.1,0,0.1h-1v1.7
			c0,0.2,0,0.4,0,0.5c0,0.1,0,0.2,0.1,0.3c0,0.1,0.1,0.1,0.2,0.1c0.1,0,0.2,0,0.3,0c0.1,0,0.2,0,0.2,0c0.1,0,0.1,0,0.2,0
			c0,0.1,0.1,0.2,0.1,0.3s0,0.2,0,0.3c-0.1,0-0.2,0-0.3,0.1s-0.2,0-0.4,0c-0.4,0-0.6-0.1-0.8-0.3C13.1,49,13,48.7,13,48.3V46.2z"/>
		<path fill="#CAC8C7" d="M16.5,47.7c0,0.4,0.1,0.7,0.3,0.9c0.2,0.2,0.5,0.3,0.9,0.3c0.4,0,0.7-0.1,1-0.2c0,0.1,0.1,0.2,0.1,0.3
			c0,0.1,0,0.2,0,0.3c-0.2,0.1-0.3,0.1-0.5,0.2c-0.2,0-0.4,0.1-0.7,0.1c-0.3,0-0.6,0-0.9-0.1c-0.2-0.1-0.5-0.2-0.6-0.4
			c-0.2-0.2-0.3-0.4-0.4-0.6c-0.1-0.2-0.1-0.5-0.1-0.8c0-0.3,0-0.5,0.1-0.8s0.2-0.5,0.3-0.6c0.1-0.2,0.3-0.3,0.6-0.4
			c0.2-0.1,0.5-0.2,0.8-0.2c0.3,0,0.5,0,0.7,0.1c0.2,0.1,0.4,0.2,0.5,0.4c0.1,0.2,0.2,0.3,0.3,0.6c0.1,0.2,0.1,0.5,0.1,0.7
			c0,0.1,0,0.1,0,0.2s0,0.1,0,0.2H16.5z M18.4,47.1c0-0.1,0-0.3-0.1-0.4s-0.1-0.2-0.2-0.3c-0.1-0.1-0.2-0.2-0.3-0.2
			c-0.1-0.1-0.2-0.1-0.4-0.1c-0.3,0-0.5,0.1-0.7,0.3c-0.2,0.2-0.3,0.4-0.3,0.8H18.4z"/>
		<path fill="#CAC8C7" d="M20.6,45.6c0.1,0,0.1,0,0.2,0c0.1,0,0.1,0,0.2,0s0.1,0,0.2,0c0,0,0.1,0,0.2,0c0,0.1,0,0.2,0,0.3
			c0,0.1,0,0.2,0,0.3c0-0.1,0.1-0.2,0.2-0.3c0.1-0.1,0.1-0.2,0.2-0.2s0.2-0.1,0.3-0.2c0.1,0,0.3-0.1,0.4-0.1c0.3,0,0.5,0.1,0.7,0.2
			c0.2,0.1,0.3,0.3,0.4,0.5c0-0.1,0.1-0.2,0.2-0.3c0.1-0.1,0.2-0.2,0.2-0.2c0.1-0.1,0.2-0.1,0.3-0.2c0.1,0,0.2-0.1,0.4-0.1
			c0.4,0,0.8,0.1,1,0.4s0.3,0.6,0.3,1.1v2.4c-0.1,0-0.1,0-0.2,0c-0.1,0-0.1,0-0.2,0s-0.1,0-0.2,0c-0.1,0-0.1,0-0.2,0v-2.2
			c0-0.3-0.1-0.6-0.2-0.8c-0.1-0.2-0.3-0.3-0.5-0.3c-0.3,0-0.5,0.1-0.6,0.3c-0.2,0.2-0.2,0.5-0.2,0.8v2.2c-0.1,0-0.1,0-0.2,0
			s-0.1,0-0.2,0s-0.1,0-0.2,0c-0.1,0-0.1,0-0.2,0v-2.3c0-0.3,0-0.6-0.1-0.8c-0.1-0.2-0.3-0.3-0.5-0.3c-0.1,0-0.2,0-0.4,0.1
			s-0.2,0.1-0.3,0.2s-0.1,0.2-0.2,0.4s-0.1,0.4-0.1,0.6v2c-0.1,0-0.1,0-0.2,0c-0.1,0-0.1,0-0.2,0s-0.1,0-0.2,0c-0.1,0-0.1,0-0.2,0
			V45.6z"/>
		<path fill="#CAC8C7" d="M29.4,46.9c0-0.3-0.1-0.5-0.2-0.6s-0.4-0.2-0.6-0.2c-0.2,0-0.3,0-0.5,0c-0.2,0-0.3,0.1-0.4,0.1
			c-0.1-0.2-0.1-0.4-0.1-0.6c0.2-0.1,0.4-0.1,0.6-0.1c0.2,0,0.4,0,0.6,0c0.5,0,0.9,0.1,1.1,0.3c0.3,0.2,0.4,0.6,0.4,1.1v2.4
			c-0.2,0-0.4,0.1-0.6,0.1s-0.5,0.1-0.8,0.1c-0.2,0-0.5,0-0.7-0.1s-0.4-0.1-0.5-0.2s-0.2-0.2-0.3-0.4c-0.1-0.2-0.1-0.3-0.1-0.6
			c0-0.2,0-0.4,0.1-0.6c0.1-0.2,0.2-0.3,0.4-0.4c0.1-0.1,0.3-0.2,0.5-0.2c0.2-0.1,0.4-0.1,0.6-0.1c0.2,0,0.3,0,0.4,0
			c0.1,0,0.2,0,0.3,0V46.9z M29.4,47.6c-0.1,0-0.2,0-0.3,0s-0.2,0-0.3,0c-0.3,0-0.5,0.1-0.7,0.2c-0.2,0.1-0.2,0.3-0.2,0.5
			c0,0.1,0,0.3,0.1,0.4s0.1,0.1,0.2,0.2c0.1,0,0.2,0.1,0.3,0.1c0.1,0,0.2,0,0.3,0c0.1,0,0.2,0,0.4,0s0.2,0,0.3-0.1V47.6z"/>
		<path fill="#CAC8C7" d="M36.4,43.9c0.1,0,0.1,0,0.2,0c0.1,0,0.1,0,0.2,0c0.1,0,0.1,0,0.2,0c0.1,0,0.1,0,0.2,0v5.4
			c-0.2,0.1-0.4,0.1-0.6,0.1c-0.2,0-0.5,0.1-0.8,0.1c-0.3,0-0.5,0-0.8-0.1s-0.5-0.2-0.6-0.3c-0.2-0.2-0.3-0.4-0.4-0.6
			c-0.1-0.2-0.2-0.5-0.2-0.9c0-0.3,0-0.6,0.1-0.8c0.1-0.3,0.2-0.5,0.4-0.7s0.4-0.3,0.6-0.4c0.2-0.1,0.5-0.1,0.8-0.1
			c0.1,0,0.3,0,0.4,0c0.1,0,0.2,0,0.3,0.1V43.9z M36.4,46.2c-0.1,0-0.2-0.1-0.3-0.1c-0.1,0-0.2,0-0.4,0c-0.2,0-0.4,0-0.5,0.1
			c-0.1,0.1-0.3,0.2-0.4,0.3c-0.1,0.1-0.2,0.3-0.2,0.5c0,0.2-0.1,0.4-0.1,0.6c0,0.5,0.1,0.8,0.3,1c0.2,0.2,0.5,0.3,0.9,0.3
			c0.1,0,0.2,0,0.4,0c0.1,0,0.2,0,0.3-0.1V46.2z"/>
		<path fill="#CAC8C7" d="M39.3,47.7c0,0.4,0.1,0.7,0.3,0.9c0.2,0.2,0.5,0.3,0.9,0.3c0.4,0,0.7-0.1,1-0.2c0,0.1,0.1,0.2,0.1,0.3
			c0,0.1,0,0.2,0,0.3c-0.2,0.1-0.3,0.1-0.5,0.2c-0.2,0-0.4,0.1-0.7,0.1c-0.3,0-0.6,0-0.9-0.1s-0.5-0.2-0.6-0.4
			c-0.2-0.2-0.3-0.4-0.4-0.6s-0.1-0.5-0.1-0.8c0-0.3,0-0.5,0.1-0.8s0.2-0.5,0.3-0.6c0.1-0.2,0.3-0.3,0.6-0.4
			c0.2-0.1,0.5-0.2,0.8-0.2c0.3,0,0.5,0,0.7,0.1c0.2,0.1,0.4,0.2,0.5,0.4c0.1,0.2,0.2,0.3,0.3,0.6c0.1,0.2,0.1,0.5,0.1,0.7
			c0,0.1,0,0.1,0,0.2c0,0.1,0,0.1,0,0.2H39.3z M41.2,47.1c0-0.1,0-0.3-0.1-0.4c0-0.1-0.1-0.2-0.2-0.3c-0.1-0.1-0.2-0.2-0.3-0.2
			c-0.1-0.1-0.2-0.1-0.4-0.1c-0.3,0-0.5,0.1-0.7,0.3c-0.2,0.2-0.3,0.4-0.3,0.8H41.2z"/>
		<path fill="#CAC8C7" d="M45.6,44c0.1,0,0.1,0,0.2,0s0.1,0,0.2,0c0.1,0,0.1,0,0.2,0s0.1,0,0.2,0v5.4c-0.1,0-0.1,0-0.2,0
			s-0.1,0-0.2,0c-0.1,0-0.1,0-0.2,0s-0.1,0-0.2,0V44z"/>
		<path fill="#CAC8C7" d="M48,45.6c0.1,0,0.1,0,0.2,0c0.1,0,0.1,0,0.2,0s0.1,0,0.2,0c0,0,0.1,0,0.2,0c0,0.1,0,0.2,0,0.3
			c0,0.1,0,0.2,0,0.3c0-0.1,0.1-0.2,0.2-0.3c0.1-0.1,0.2-0.2,0.3-0.2c0.1-0.1,0.2-0.1,0.3-0.2s0.3-0.1,0.4-0.1c0.4,0,0.8,0.1,1,0.4
			s0.3,0.6,0.3,1.1v2.4c-0.1,0-0.1,0-0.2,0s-0.1,0-0.2,0s-0.1,0-0.2,0s-0.1,0-0.2,0v-2.2c0-0.4-0.1-0.6-0.2-0.8
			c-0.1-0.2-0.3-0.3-0.5-0.3c-0.1,0-0.3,0-0.4,0.1c-0.1,0-0.2,0.1-0.3,0.2c-0.1,0.1-0.2,0.2-0.2,0.4c-0.1,0.2-0.1,0.4-0.1,0.6v1.9
			c-0.1,0-0.1,0-0.2,0c-0.1,0-0.1,0-0.2,0s-0.1,0-0.2,0c-0.1,0-0.1,0-0.2,0V45.6z"/>
		<path fill="#CAC8C7" d="M53,46.1h-0.6c0-0.1,0-0.2,0-0.3c0-0.1,0-0.2,0-0.3H53v-0.3c0-0.5,0.1-0.8,0.4-1.1s0.6-0.4,1-0.4
			c0.1,0,0.2,0,0.3,0s0.2,0,0.3,0.1c0,0.1,0,0.2,0,0.3c0,0.1,0,0.2-0.1,0.3c0,0-0.1,0-0.2,0s-0.1,0-0.2,0c-0.1,0-0.2,0-0.3,0
			S54,44.6,54,44.6c-0.1,0.1-0.1,0.1-0.1,0.3c0,0.1-0.1,0.3-0.1,0.4v0.2h1c0,0.1,0,0.2,0,0.3c0,0.1,0,0.2,0,0.3h-1v3.2
			c-0.1,0-0.1,0-0.2,0s-0.1,0-0.2,0s-0.1,0-0.2,0s-0.1,0-0.2,0V46.1z"/>
		<path fill="#CAC8C7" d="M57.3,49.5c-0.3,0-0.6-0.1-0.8-0.2c-0.2-0.1-0.4-0.2-0.6-0.4c-0.1-0.2-0.3-0.4-0.3-0.6
			c-0.1-0.2-0.1-0.5-0.1-0.8s0-0.5,0.1-0.8c0.1-0.2,0.2-0.5,0.3-0.6s0.3-0.3,0.6-0.4c0.2-0.1,0.5-0.2,0.8-0.2c0.3,0,0.6,0.1,0.8,0.2
			c0.2,0.1,0.4,0.2,0.6,0.4s0.3,0.4,0.3,0.6c0.1,0.2,0.1,0.5,0.1,0.8s0,0.5-0.1,0.8c-0.1,0.2-0.2,0.5-0.3,0.6
			c-0.1,0.2-0.3,0.3-0.6,0.4C57.9,49.4,57.6,49.5,57.3,49.5z M57.3,48.9c0.3,0,0.6-0.1,0.8-0.4c0.2-0.2,0.2-0.6,0.2-1
			s-0.1-0.8-0.2-1s-0.4-0.4-0.8-0.4s-0.6,0.1-0.8,0.4c-0.2,0.2-0.2,0.6-0.2,1s0.1,0.8,0.2,1C56.7,48.8,57,48.9,57.3,48.9z"/>
		<path fill="#CAC8C7" d="M60.5,45.6c0.1,0,0.1,0,0.2,0s0.1,0,0.2,0s0.1,0,0.2,0s0.1,0,0.1,0c0,0.1,0,0.2,0,0.3c0,0.1,0,0.2,0,0.3
			c0.1-0.2,0.2-0.3,0.4-0.4c0.2-0.1,0.4-0.2,0.7-0.2c0,0,0.1,0,0.1,0c0,0,0.1,0,0.1,0c0,0,0,0.1,0,0.1s0,0.1,0,0.2
			c0,0.1,0,0.1,0,0.2c0,0.1,0,0.1,0,0.2c0,0-0.1,0-0.1,0c0,0-0.1,0-0.1,0c-0.1,0-0.3,0-0.4,0.1c-0.1,0-0.2,0.1-0.3,0.2
			s-0.2,0.2-0.2,0.4c-0.1,0.2-0.1,0.4-0.1,0.6v1.9c-0.1,0-0.1,0-0.2,0c-0.1,0-0.1,0-0.2,0s-0.1,0-0.2,0s-0.1,0-0.2,0V45.6z"/>
		<path fill="#CAC8C7" d="M63.8,45.6c0.1,0,0.1,0,0.2,0c0.1,0,0.1,0,0.2,0s0.1,0,0.2,0c0,0,0.1,0,0.2,0c0,0.1,0,0.2,0,0.3
			c0,0.1,0,0.2,0,0.3c0-0.1,0.1-0.2,0.2-0.3c0.1-0.1,0.1-0.2,0.2-0.2s0.2-0.1,0.3-0.2c0.1,0,0.3-0.1,0.4-0.1c0.3,0,0.5,0.1,0.7,0.2
			c0.2,0.1,0.3,0.3,0.4,0.5c0-0.1,0.1-0.2,0.2-0.3c0.1-0.1,0.2-0.2,0.2-0.2c0.1-0.1,0.2-0.1,0.3-0.2c0.1,0,0.2-0.1,0.4-0.1
			c0.4,0,0.8,0.1,1,0.4s0.3,0.6,0.3,1.1v2.4c-0.1,0-0.1,0-0.2,0c-0.1,0-0.1,0-0.2,0s-0.1,0-0.2,0c-0.1,0-0.1,0-0.2,0v-2.2
			c0-0.3-0.1-0.6-0.2-0.8c-0.1-0.2-0.3-0.3-0.5-0.3c-0.3,0-0.5,0.1-0.6,0.3c-0.2,0.2-0.2,0.5-0.2,0.8v2.2c-0.1,0-0.1,0-0.2,0
			s-0.1,0-0.2,0s-0.1,0-0.2,0c-0.1,0-0.1,0-0.2,0v-2.3c0-0.3,0-0.6-0.1-0.8c-0.1-0.2-0.3-0.3-0.5-0.3c-0.1,0-0.2,0-0.4,0.1
			s-0.2,0.1-0.3,0.2s-0.1,0.2-0.2,0.4s-0.1,0.4-0.1,0.6v2c-0.1,0-0.1,0-0.2,0c-0.1,0-0.1,0-0.2,0s-0.1,0-0.2,0c-0.1,0-0.1,0-0.2,0
			V45.6z"/>
		<path fill="#CAC8C7" d="M72.6,46.9c0-0.3-0.1-0.5-0.2-0.6c-0.1-0.1-0.4-0.2-0.6-0.2c-0.2,0-0.3,0-0.5,0c-0.2,0-0.3,0.1-0.4,0.1
			c-0.1-0.2-0.1-0.4-0.1-0.6c0.2-0.1,0.4-0.1,0.6-0.1s0.4,0,0.6,0c0.5,0,0.9,0.1,1.1,0.3c0.3,0.2,0.4,0.6,0.4,1.1v2.4
			c-0.2,0-0.4,0.1-0.6,0.1c-0.2,0-0.5,0.1-0.8,0.1c-0.2,0-0.5,0-0.7-0.1s-0.4-0.1-0.5-0.2c-0.1-0.1-0.2-0.2-0.3-0.4
			s-0.1-0.3-0.1-0.6c0-0.2,0-0.4,0.1-0.6c0.1-0.2,0.2-0.3,0.4-0.4c0.1-0.1,0.3-0.2,0.5-0.2c0.2-0.1,0.4-0.1,0.6-0.1
			c0.2,0,0.3,0,0.4,0c0.1,0,0.2,0,0.3,0V46.9z M72.6,47.6c-0.1,0-0.2,0-0.3,0c-0.1,0-0.2,0-0.3,0c-0.3,0-0.5,0.1-0.7,0.2
			c-0.2,0.1-0.2,0.3-0.2,0.5c0,0.1,0,0.3,0.1,0.4s0.1,0.1,0.2,0.2c0.1,0,0.2,0.1,0.3,0.1c0.1,0,0.2,0,0.3,0c0.1,0,0.2,0,0.4,0
			c0.1,0,0.2,0,0.3-0.1V47.6z"/>
		<path fill="#CAC8C7" d="M77.4,48.7c0,0.1,0.1,0.2,0.1,0.3c0,0.1,0,0.2,0.1,0.3c-0.3,0.1-0.6,0.2-1,0.2c-0.6,0-1.1-0.2-1.4-0.5
			s-0.5-0.8-0.5-1.5c0-0.3,0-0.5,0.1-0.8c0.1-0.2,0.2-0.5,0.4-0.6c0.2-0.2,0.4-0.3,0.6-0.4c0.2-0.1,0.5-0.2,0.8-0.2
			c0.2,0,0.4,0,0.6,0c0.2,0,0.3,0.1,0.5,0.1c0,0.1,0,0.2,0,0.3c0,0.1-0.1,0.2-0.1,0.3c-0.2-0.1-0.5-0.1-0.8-0.1
			c-0.4,0-0.7,0.1-0.9,0.4c-0.2,0.3-0.3,0.6-0.3,1c0,0.5,0.1,0.8,0.3,1c0.2,0.2,0.5,0.3,0.9,0.3c0.1,0,0.3,0,0.4,0
			C77.2,48.8,77.3,48.8,77.4,48.7z"/>
		<path fill="#CAC8C7" d="M79.1,46.1h-0.5c0,0,0-0.1,0-0.1c0-0.1,0-0.1,0-0.2s0-0.1,0-0.2c0-0.1,0-0.1,0-0.1h1.2v3.8
			c-0.1,0-0.1,0-0.2,0c-0.1,0-0.1,0-0.2,0c0,0-0.1,0-0.2,0c-0.1,0-0.1,0-0.2,0V46.1z M78.9,44.7c0-0.1,0-0.1,0-0.2
			c0-0.1,0-0.1,0-0.2s0-0.1,0-0.2c0-0.1,0-0.1,0-0.2c0.1,0,0.1,0,0.2,0c0.1,0,0.1,0,0.2,0s0.1,0,0.2,0c0.1,0,0.1,0,0.2,0
			c0,0.1,0,0.1,0,0.2c0,0.1,0,0.1,0,0.2s0,0.1,0,0.2c0,0.1,0,0.1,0,0.2c-0.1,0-0.1,0-0.2,0s-0.1,0-0.2,0c-0.1,0-0.1,0-0.2,0
			C79.1,44.7,79,44.7,78.9,44.7z"/>
		<path fill="#CAC8C7" d="M83,49.5c-0.3,0-0.6-0.1-0.8-0.2c-0.2-0.1-0.4-0.2-0.6-0.4c-0.1-0.2-0.3-0.4-0.3-0.6
			c-0.1-0.2-0.1-0.5-0.1-0.8s0-0.5,0.1-0.8c0.1-0.2,0.2-0.5,0.3-0.6c0.1-0.2,0.3-0.3,0.6-0.4c0.2-0.1,0.5-0.2,0.8-0.2
			c0.3,0,0.6,0.1,0.8,0.2c0.2,0.1,0.4,0.2,0.6,0.4c0.1,0.2,0.3,0.4,0.3,0.6c0.1,0.2,0.1,0.5,0.1,0.8s0,0.5-0.1,0.8
			c-0.1,0.2-0.2,0.5-0.3,0.6c-0.1,0.2-0.3,0.3-0.6,0.4C83.6,49.4,83.3,49.5,83,49.5z M83,48.9c0.3,0,0.6-0.1,0.8-0.4
			c0.2-0.2,0.2-0.6,0.2-1s-0.1-0.8-0.2-1s-0.4-0.4-0.8-0.4c-0.3,0-0.6,0.1-0.8,0.4c-0.2,0.2-0.2,0.6-0.2,1s0.1,0.8,0.2,1
			C82.4,48.8,82.7,48.9,83,48.9z M83,45c-0.1,0-0.1,0-0.2,0s-0.1,0-0.2,0c-0.1,0-0.1,0-0.2,0c-0.1,0-0.1,0-0.2,0l0.9-0.9
			c0.1,0,0.2,0,0.2,0c0.1,0,0.2,0,0.2,0c0.1,0,0.2,0,0.2,0c0.1,0,0.1,0,0.2,0L83,45z"/>
		<path fill="#CAC8C7" d="M86.2,45.6c0.1,0,0.1,0,0.2,0c0.1,0,0.1,0,0.2,0s0.1,0,0.2,0c0,0,0.1,0,0.2,0c0,0.1,0,0.2,0,0.3
			c0,0.1,0,0.2,0,0.3c0-0.1,0.1-0.2,0.2-0.3c0.1-0.1,0.2-0.2,0.3-0.2s0.2-0.1,0.3-0.2c0.1,0,0.3-0.1,0.4-0.1c0.4,0,0.8,0.1,1,0.4
			s0.3,0.6,0.3,1.1v2.4c-0.1,0-0.1,0-0.2,0c-0.1,0-0.1,0-0.2,0s-0.1,0-0.2,0c-0.1,0-0.1,0-0.2,0v-2.2c0-0.4-0.1-0.6-0.2-0.8
			c-0.1-0.2-0.3-0.3-0.5-0.3c-0.1,0-0.3,0-0.4,0.1s-0.2,0.1-0.3,0.2c-0.1,0.1-0.2,0.2-0.2,0.4c-0.1,0.2-0.1,0.4-0.1,0.6v1.9
			c-0.1,0-0.1,0-0.2,0s-0.1,0-0.2,0s-0.1,0-0.2,0c-0.1,0-0.1,0-0.2,0V45.6z"/>
		<path fill="#CAC8C7" d="M93.1,45.6c0,0,0.1,0,0.2,0c0.1,0,0.1,0,0.2,0c0,0,0.1,0,0.2,0s0.1,0,0.2,0c0,0,0,0,0,0.1
			c0,0.1,0,0.1,0,0.2c0,0.1,0,0.1,0,0.2c0,0.1,0,0.1,0,0.1c0-0.1,0.1-0.2,0.2-0.2s0.2-0.1,0.3-0.2s0.2-0.1,0.3-0.1
			c0.1,0,0.3-0.1,0.4-0.1c0.2,0,0.4,0,0.6,0.1c0.2,0.1,0.4,0.2,0.5,0.3c0.1,0.2,0.2,0.4,0.3,0.6s0.1,0.5,0.1,0.9
			c0,0.7-0.2,1.2-0.5,1.5s-0.9,0.6-1.5,0.6c-0.1,0-0.2,0-0.3,0s-0.2,0-0.3-0.1v1.8c-0.1,0-0.1,0-0.2,0s-0.1,0-0.2,0s-0.1,0-0.2,0
			s-0.1,0-0.2,0V45.6z M93.9,48.8c0.1,0,0.2,0.1,0.3,0.1s0.2,0,0.4,0c0.2,0,0.3,0,0.5-0.1c0.1-0.1,0.3-0.1,0.4-0.3
			c0.1-0.1,0.2-0.3,0.3-0.5s0.1-0.4,0.1-0.6c0-0.4-0.1-0.7-0.2-0.9s-0.4-0.4-0.7-0.4c-0.1,0-0.2,0-0.4,0.1c-0.1,0-0.2,0.1-0.3,0.2
			c-0.1,0.1-0.2,0.2-0.2,0.3s-0.1,0.3-0.1,0.5V48.8z"/>
		<path fill="#CAC8C7" d="M100,46.9c0-0.3-0.1-0.5-0.2-0.6s-0.4-0.2-0.6-0.2c-0.2,0-0.3,0-0.5,0c-0.2,0-0.3,0.1-0.4,0.1
			c-0.1-0.2-0.1-0.4-0.1-0.6c0.2-0.1,0.4-0.1,0.6-0.1c0.2,0,0.4,0,0.6,0c0.5,0,0.9,0.1,1.1,0.3c0.3,0.2,0.4,0.6,0.4,1.1v2.4
			c-0.2,0-0.4,0.1-0.6,0.1s-0.5,0.1-0.8,0.1c-0.2,0-0.5,0-0.7-0.1s-0.4-0.1-0.5-0.2s-0.2-0.2-0.3-0.4c-0.1-0.2-0.1-0.3-0.1-0.6
			c0-0.2,0-0.4,0.1-0.6c0.1-0.2,0.2-0.3,0.4-0.4c0.1-0.1,0.3-0.2,0.5-0.2C99,47,99.2,47,99.4,47c0.2,0,0.3,0,0.4,0
			c0.1,0,0.2,0,0.3,0V46.9z M100,47.6c-0.1,0-0.2,0-0.3,0s-0.2,0-0.3,0c-0.3,0-0.5,0.1-0.7,0.2c-0.2,0.1-0.2,0.3-0.2,0.5
			c0,0.1,0,0.3,0.1,0.4s0.1,0.1,0.2,0.2c0.1,0,0.2,0.1,0.3,0.1c0.1,0,0.2,0,0.3,0c0.1,0,0.2,0,0.4,0s0.2,0,0.3-0.1V47.6z"/>
		<path fill="#CAC8C7" d="M102.3,45.6c0.1,0,0.1,0,0.2,0s0.1,0,0.2,0s0.1,0,0.2,0s0.1,0,0.1,0c0,0.1,0,0.2,0,0.3c0,0.1,0,0.2,0,0.3
			c0.1-0.2,0.2-0.3,0.4-0.4c0.2-0.1,0.4-0.2,0.7-0.2c0,0,0.1,0,0.1,0c0,0,0.1,0,0.1,0c0,0,0,0.1,0,0.1s0,0.1,0,0.2
			c0,0.1,0,0.1,0,0.2c0,0.1,0,0.1,0,0.2c0,0-0.1,0-0.1,0c0,0-0.1,0-0.1,0c-0.1,0-0.3,0-0.4,0.1c-0.1,0-0.2,0.1-0.3,0.2
			s-0.2,0.2-0.2,0.4c-0.1,0.2-0.1,0.4-0.1,0.6v1.9c-0.1,0-0.1,0-0.2,0c-0.1,0-0.1,0-0.2,0s-0.1,0-0.2,0s-0.1,0-0.2,0V45.6z"/>
		<path fill="#CAC8C7" d="M107.5,46.9c0-0.3-0.1-0.5-0.2-0.6c-0.1-0.1-0.4-0.2-0.6-0.2c-0.2,0-0.3,0-0.5,0c-0.2,0-0.3,0.1-0.4,0.1
			c-0.1-0.2-0.1-0.4-0.1-0.6c0.2-0.1,0.4-0.1,0.6-0.1s0.4,0,0.6,0c0.5,0,0.9,0.1,1.1,0.3c0.3,0.2,0.4,0.6,0.4,1.1v2.4
			c-0.2,0-0.4,0.1-0.6,0.1c-0.2,0-0.5,0.1-0.8,0.1c-0.2,0-0.5,0-0.7-0.1s-0.4-0.1-0.5-0.2c-0.1-0.1-0.2-0.2-0.3-0.4
			s-0.1-0.3-0.1-0.6c0-0.2,0-0.4,0.1-0.6c0.1-0.2,0.2-0.3,0.4-0.4c0.1-0.1,0.3-0.2,0.5-0.2c0.2-0.1,0.4-0.1,0.6-0.1
			c0.2,0,0.3,0,0.4,0c0.1,0,0.2,0,0.3,0V46.9z M107.5,47.6c-0.1,0-0.2,0-0.3,0c-0.1,0-0.2,0-0.3,0c-0.3,0-0.5,0.1-0.7,0.2
			c-0.2,0.1-0.2,0.3-0.2,0.5c0,0.1,0,0.3,0.1,0.4s0.1,0.1,0.2,0.2c0.1,0,0.2,0.1,0.3,0.1c0.1,0,0.2,0,0.3,0c0.1,0,0.2,0,0.4,0
			c0.1,0,0.2,0,0.3-0.1V47.6z"/>
		<path fill="#CAC8C7" d="M111.9,43.9c0.1,0,0.1,0,0.2,0c0.1,0,0.1,0,0.2,0s0.1,0,0.2,0c0.1,0,0.1,0,0.2,0v4.3c0,0.1,0,0.2,0,0.3
			c0,0.1,0.1,0.1,0.1,0.2c0,0,0.1,0.1,0.1,0.1c0.1,0,0.1,0,0.2,0c0,0,0.1,0,0.2,0c0.1,0,0.1,0,0.1,0c0,0.2,0.1,0.4,0.1,0.6
			c-0.1,0-0.2,0-0.3,0c-0.1,0-0.2,0-0.3,0c-0.1,0-0.3,0-0.4-0.1c-0.1,0-0.2-0.1-0.3-0.2c-0.1-0.1-0.2-0.2-0.2-0.3
			c-0.1-0.1-0.1-0.3-0.1-0.5V43.9z"/>
		<path fill="#CAC8C7" d="M116.6,46.9c0-0.3-0.1-0.5-0.2-0.6s-0.4-0.2-0.6-0.2c-0.2,0-0.3,0-0.5,0c-0.2,0-0.3,0.1-0.4,0.1
			c-0.1-0.2-0.1-0.4-0.1-0.6c0.2-0.1,0.4-0.1,0.6-0.1c0.2,0,0.4,0,0.6,0c0.5,0,0.9,0.1,1.1,0.3c0.3,0.2,0.4,0.6,0.4,1.1v2.4
			c-0.2,0-0.4,0.1-0.6,0.1s-0.5,0.1-0.8,0.1c-0.2,0-0.5,0-0.7-0.1s-0.4-0.1-0.5-0.2s-0.2-0.2-0.3-0.4c-0.1-0.2-0.1-0.3-0.1-0.6
			c0-0.2,0-0.4,0.1-0.6c0.1-0.2,0.2-0.3,0.4-0.4c0.1-0.1,0.3-0.2,0.5-0.2c0.2-0.1,0.4-0.1,0.6-0.1c0.2,0,0.3,0,0.4,0
			c0.1,0,0.2,0,0.3,0V46.9z M116.6,47.6c-0.1,0-0.2,0-0.3,0s-0.2,0-0.3,0c-0.3,0-0.5,0.1-0.7,0.2c-0.2,0.1-0.2,0.3-0.2,0.5
			c0,0.1,0,0.3,0.1,0.4s0.1,0.1,0.2,0.2c0.1,0,0.2,0.1,0.3,0.1c0.1,0,0.2,0,0.3,0c0.1,0,0.2,0,0.4,0s0.2,0,0.3-0.1V47.6z"/>
		<path fill="#CAC8C7" d="M5.1,54.8c0.1,0,0.1,0,0.2,0c0.1,0,0.1,0,0.2,0s0.1,0,0.2,0c0.1,0,0.1,0,0.2,0v2.6c-0.1,0-0.2,0.1-0.3,0.1
			c-0.1,0-0.3,0.1-0.4,0.1c-0.1,0-0.3,0-0.4,0c-0.1,0-0.3,0-0.4,0c-0.4,0-0.8-0.1-1.1-0.2c-0.3-0.1-0.6-0.3-0.8-0.5
			c-0.2-0.2-0.4-0.5-0.5-0.9s-0.2-0.7-0.2-1.1s0.1-0.8,0.2-1.2s0.3-0.6,0.5-0.9c0.2-0.2,0.5-0.4,0.8-0.6c0.3-0.1,0.6-0.2,1-0.2
			c0.3,0,0.5,0,0.7,0.1c0.2,0,0.4,0.1,0.6,0.2c0,0.1,0,0.2-0.1,0.3s-0.1,0.2-0.1,0.3c-0.1,0-0.3-0.1-0.5-0.1c-0.2,0-0.4-0.1-0.6-0.1
			c-0.3,0-0.5,0-0.7,0.1c-0.2,0.1-0.4,0.2-0.6,0.4c-0.2,0.2-0.3,0.4-0.4,0.7c-0.1,0.3-0.1,0.6-0.1,0.9c0,0.4,0,0.7,0.1,0.9
			c0.1,0.3,0.2,0.5,0.4,0.6c0.2,0.2,0.3,0.3,0.6,0.4C3.9,56.9,4.1,57,4.4,57c0.2,0,0.3,0,0.4,0c0.1,0,0.2,0,0.3-0.1V54.8z"/>
		<path fill="#CAC8C7" d="M8,55.8c0,0.4,0.1,0.7,0.3,0.9C8.6,56.9,8.9,57,9.3,57c0.4,0,0.7-0.1,1-0.2c0,0.1,0.1,0.2,0.1,0.3
			c0,0.1,0,0.2,0,0.3c-0.2,0.1-0.3,0.1-0.5,0.2c-0.2,0-0.4,0.1-0.7,0.1c-0.3,0-0.6,0-0.9-0.1s-0.5-0.2-0.6-0.4
			c-0.2-0.2-0.3-0.4-0.4-0.6S7.2,56,7.2,55.7c0-0.3,0-0.5,0.1-0.8s0.2-0.5,0.3-0.6c0.1-0.2,0.3-0.3,0.6-0.4c0.2-0.1,0.5-0.2,0.8-0.2
			c0.3,0,0.5,0,0.7,0.1c0.2,0.1,0.4,0.2,0.5,0.4c0.1,0.2,0.2,0.3,0.3,0.6c0.1,0.2,0.1,0.5,0.1,0.7c0,0.1,0,0.1,0,0.2
			c0,0.1,0,0.1,0,0.2H8z M9.9,55.3c0-0.1,0-0.3-0.1-0.4c0-0.1-0.1-0.2-0.2-0.3c-0.1-0.1-0.2-0.2-0.3-0.2c-0.1-0.1-0.2-0.1-0.4-0.1
			c-0.3,0-0.5,0.1-0.7,0.3c-0.2,0.2-0.3,0.4-0.3,0.8H9.9z"/>
		<path fill="#CAC8C7" d="M12,56.9c0.1,0.1,0.3,0.1,0.4,0.1c0.2,0,0.3,0,0.5,0c0.1,0,0.2,0,0.3,0c0.1,0,0.2-0.1,0.3-0.1
			c0.1,0,0.1-0.1,0.2-0.2c0-0.1,0.1-0.2,0.1-0.2c0-0.1,0-0.2-0.1-0.2c0-0.1-0.1-0.1-0.1-0.2c-0.1,0-0.1-0.1-0.2-0.1
			c-0.1,0-0.2-0.1-0.3-0.1l-0.3-0.1c-0.3-0.1-0.5-0.3-0.7-0.4c-0.1-0.1-0.2-0.4-0.2-0.6c0-0.3,0.1-0.6,0.4-0.8
			c0.2-0.2,0.6-0.3,1.1-0.3c0.2,0,0.4,0,0.6,0.1c0.2,0,0.3,0.1,0.5,0.1c0,0.1,0,0.2-0.1,0.3s-0.1,0.2-0.1,0.3
			c-0.1,0-0.2-0.1-0.4-0.1c-0.2,0-0.3-0.1-0.5-0.1c-0.2,0-0.3,0-0.5,0.1s-0.2,0.2-0.2,0.3c0,0.1,0,0.2,0.1,0.2s0.1,0.1,0.1,0.2
			c0.1,0,0.1,0.1,0.2,0.1c0.1,0,0.2,0.1,0.3,0.1l0.3,0.1c0.1,0,0.2,0.1,0.3,0.1c0.1,0.1,0.2,0.1,0.3,0.2c0.1,0.1,0.1,0.2,0.2,0.3
			c0,0.1,0.1,0.3,0.1,0.4c0,0.2,0,0.4-0.1,0.5c-0.1,0.2-0.2,0.3-0.3,0.4c-0.1,0.1-0.3,0.2-0.5,0.3c-0.2,0.1-0.4,0.1-0.6,0.1
			c-0.2,0-0.4,0-0.6,0s-0.3-0.1-0.5-0.1c0-0.1,0-0.2,0.1-0.3C11.9,57.1,12,57,12,56.9z"/>
		<path fill="#CAC8C7" d="M16,54.3h-0.6l0-0.1l1.3-1.4h0.1v0.9h1c0,0.1,0,0.2,0,0.3c0,0.1,0,0.1,0,0.2c0,0,0,0.1,0,0.1h-1v1.7
			c0,0.2,0,0.4,0,0.5c0,0.1,0,0.2,0.1,0.3c0,0.1,0.1,0.1,0.2,0.1c0.1,0,0.2,0,0.3,0c0.1,0,0.2,0,0.2,0c0.1,0,0.1,0,0.2,0
			c0,0.1,0.1,0.2,0.1,0.3s0,0.2,0,0.3c-0.1,0-0.2,0-0.3,0.1s-0.2,0-0.4,0c-0.4,0-0.6-0.1-0.8-0.3c-0.2-0.2-0.3-0.5-0.3-0.9V54.3z"/>
		<path fill="#CAC8C7" d="M19.2,54.3h-0.5c0,0,0-0.1,0-0.1c0-0.1,0-0.1,0-0.2s0-0.1,0-0.2c0-0.1,0-0.1,0-0.1H20v3.8
			c-0.1,0-0.1,0-0.2,0c-0.1,0-0.1,0-0.2,0c0,0-0.1,0-0.2,0s-0.1,0-0.2,0V54.3z M19.1,52.9c0-0.1,0-0.1,0-0.2c0-0.1,0-0.1,0-0.2
			s0-0.1,0-0.2c0-0.1,0-0.1,0-0.2c0.1,0,0.1,0,0.2,0c0.1,0,0.1,0,0.2,0s0.1,0,0.2,0s0.1,0,0.2,0c0,0.1,0,0.1,0,0.2
			c0,0.1,0,0.1,0,0.2s0,0.1,0,0.2c0,0.1,0,0.1,0,0.2c-0.1,0-0.1,0-0.2,0s-0.1,0-0.2,0c-0.1,0-0.1,0-0.2,0
			C19.2,52.9,19.1,52.9,19.1,52.9z"/>
		<path fill="#CAC8C7" d="M23.2,57.6c-0.3,0-0.6-0.1-0.8-0.2c-0.2-0.1-0.4-0.2-0.6-0.4c-0.1-0.2-0.3-0.4-0.3-0.6
			c-0.1-0.2-0.1-0.5-0.1-0.8s0-0.5,0.1-0.8c0.1-0.2,0.2-0.5,0.3-0.6s0.3-0.3,0.6-0.4c0.2-0.1,0.5-0.2,0.8-0.2c0.3,0,0.6,0.1,0.8,0.2
			c0.2,0.1,0.4,0.2,0.6,0.4s0.3,0.4,0.3,0.6c0.1,0.2,0.1,0.5,0.1,0.8s0,0.5-0.1,0.8c-0.1,0.2-0.2,0.5-0.3,0.6
			c-0.1,0.2-0.3,0.3-0.6,0.4C23.7,57.6,23.4,57.6,23.2,57.6z M23.2,57.1c0.3,0,0.6-0.1,0.8-0.4c0.2-0.2,0.2-0.6,0.2-1
			s-0.1-0.8-0.2-1s-0.4-0.4-0.8-0.4s-0.6,0.1-0.8,0.4c-0.2,0.2-0.2,0.6-0.2,1s0.1,0.8,0.2,1C22.6,56.9,22.8,57.1,23.2,57.1z
			 M23.2,53.1c-0.1,0-0.1,0-0.2,0c-0.1,0-0.1,0-0.2,0c-0.1,0-0.1,0-0.2,0c-0.1,0-0.1,0-0.2,0l0.9-0.9c0.1,0,0.2,0,0.2,0
			c0.1,0,0.2,0,0.2,0c0.1,0,0.2,0,0.2,0s0.1,0,0.2,0L23.2,53.1z"/>
		<path fill="#CAC8C7" d="M26.3,53.7c0.1,0,0.1,0,0.2,0c0.1,0,0.1,0,0.2,0s0.1,0,0.2,0c0,0,0.1,0,0.2,0c0,0.1,0,0.2,0,0.3
			c0,0.1,0,0.2,0,0.3c0-0.1,0.1-0.2,0.2-0.3c0.1-0.1,0.2-0.2,0.3-0.2c0.1-0.1,0.2-0.1,0.3-0.2s0.3-0.1,0.4-0.1c0.4,0,0.8,0.1,1,0.4
			s0.3,0.6,0.3,1.1v2.4c-0.1,0-0.1,0-0.2,0s-0.1,0-0.2,0s-0.1,0-0.2,0s-0.1,0-0.2,0v-2.2c0-0.4-0.1-0.6-0.2-0.8
			c-0.1-0.2-0.3-0.3-0.5-0.3c-0.1,0-0.3,0-0.4,0.1c-0.1,0-0.2,0.1-0.3,0.2c-0.1,0.1-0.2,0.2-0.2,0.4c-0.1,0.2-0.1,0.4-0.1,0.6v1.9
			c-0.1,0-0.1,0-0.2,0c-0.1,0-0.1,0-0.2,0s-0.1,0-0.2,0c-0.1,0-0.1,0-0.2,0V53.7z"/>
		<path fill="#CAC8C7" d="M33.4,52.2h2.9c0,0.1,0,0.2,0,0.3c0,0.1,0,0.1,0,0.2c0,0.1,0,0.1,0,0.2h-2.2v1.5h1.7c0,0,0,0.1,0,0.2
			c0,0.1,0,0.1,0,0.2s0,0.1,0,0.2s0,0.1,0,0.2h-1.7v1.8h2.2c0,0.1,0,0.2,0,0.3c0,0.1,0,0.1,0,0.2c0,0.1,0,0.1,0,0.2h-3V52.2z"/>
		<path fill="#CAC8C7" d="M40.1,52.1c0.1,0,0.1,0,0.2,0c0.1,0,0.1,0,0.2,0c0.1,0,0.1,0,0.2,0c0.1,0,0.1,0,0.2,0v5.4
			c-0.2,0.1-0.4,0.1-0.6,0.1c-0.2,0-0.5,0.1-0.8,0.1c-0.3,0-0.5,0-0.8-0.1s-0.5-0.2-0.6-0.3c-0.2-0.2-0.3-0.4-0.4-0.6
			c-0.1-0.2-0.2-0.5-0.2-0.9c0-0.3,0-0.6,0.1-0.8c0.1-0.3,0.2-0.5,0.4-0.7s0.4-0.3,0.6-0.4c0.2-0.1,0.5-0.1,0.8-0.1
			c0.1,0,0.3,0,0.4,0c0.1,0,0.2,0,0.3,0.1V52.1z M40.1,54.4c-0.1,0-0.2-0.1-0.3-0.1c-0.1,0-0.2,0-0.4,0c-0.2,0-0.4,0-0.5,0.1
			c-0.1,0.1-0.3,0.2-0.4,0.3c-0.1,0.1-0.2,0.3-0.2,0.5c0,0.2-0.1,0.4-0.1,0.6c0,0.5,0.1,0.8,0.3,1c0.2,0.2,0.5,0.3,0.9,0.3
			c0.1,0,0.2,0,0.4,0c0.1,0,0.2,0,0.3-0.1V54.4z"/>
		<path fill="#CAC8C7" d="M42.4,53.7c0.1,0,0.1,0,0.2,0c0.1,0,0.1,0,0.2,0c0.1,0,0.1,0,0.2,0c0.1,0,0.1,0,0.2,0v2.1
			c0,0.2,0,0.4,0.1,0.6c0,0.2,0.1,0.3,0.2,0.4c0.1,0.1,0.2,0.2,0.3,0.2c0.1,0,0.3,0.1,0.4,0.1c0.3,0,0.5,0,0.6-0.1v-3.2
			c0.1,0,0.1,0,0.2,0c0.1,0,0.1,0,0.2,0s0.1,0,0.2,0s0.1,0,0.2,0v3.7c-0.2,0-0.4,0.1-0.6,0.1s-0.5,0.1-0.7,0.1c-0.2,0-0.5,0-0.7-0.1
			c-0.2,0-0.4-0.1-0.6-0.3c-0.2-0.1-0.3-0.3-0.4-0.5c-0.1-0.2-0.1-0.5-0.1-0.9V53.7z"/>
		<path fill="#CAC8C7" d="M49.8,56.9c0,0.1,0.1,0.2,0.1,0.3c0,0.1,0,0.2,0.1,0.3c-0.3,0.1-0.6,0.2-1,0.2c-0.6,0-1.1-0.2-1.4-0.5
			S47,56.3,47,55.6c0-0.3,0-0.5,0.1-0.8c0.1-0.2,0.2-0.5,0.4-0.6c0.2-0.2,0.4-0.3,0.6-0.4c0.2-0.1,0.5-0.2,0.8-0.2
			c0.2,0,0.4,0,0.6,0c0.2,0,0.3,0.1,0.5,0.1c0,0.1,0,0.2,0,0.3c0,0.1-0.1,0.2-0.1,0.3c-0.2-0.1-0.5-0.1-0.8-0.1
			c-0.4,0-0.7,0.1-0.9,0.4c-0.2,0.3-0.3,0.6-0.3,1c0,0.5,0.1,0.8,0.3,1S48.6,57,49,57c0.1,0,0.3,0,0.4,0
			C49.5,57,49.6,56.9,49.8,56.9z"/>
		<path fill="#CAC8C7" d="M53.2,55c0-0.3-0.1-0.5-0.2-0.6c-0.1-0.1-0.4-0.2-0.6-0.2c-0.2,0-0.3,0-0.5,0c-0.2,0-0.3,0.1-0.4,0.1
			c-0.1-0.2-0.1-0.4-0.1-0.6c0.2-0.1,0.4-0.1,0.6-0.1s0.4,0,0.6,0c0.5,0,0.9,0.1,1.1,0.3c0.3,0.2,0.4,0.6,0.4,1.1v2.4
			c-0.2,0-0.4,0.1-0.6,0.1c-0.2,0-0.5,0.1-0.8,0.1c-0.2,0-0.5,0-0.7-0.1s-0.4-0.1-0.5-0.2c-0.1-0.1-0.2-0.2-0.3-0.4S51,56.6,51,56.4
			c0-0.2,0-0.4,0.1-0.6c0.1-0.2,0.2-0.3,0.4-0.4c0.1-0.1,0.3-0.2,0.5-0.2c0.2-0.1,0.4-0.1,0.6-0.1c0.2,0,0.3,0,0.4,0
			c0.1,0,0.2,0,0.3,0V55z M53.2,55.8c-0.1,0-0.2,0-0.3,0c-0.1,0-0.2,0-0.3,0c-0.3,0-0.5,0.1-0.7,0.2c-0.2,0.1-0.2,0.3-0.2,0.5
			c0,0.1,0,0.3,0.1,0.4s0.1,0.1,0.2,0.2c0.1,0,0.2,0.1,0.3,0.1c0.1,0,0.2,0,0.3,0c0.1,0,0.2,0,0.4,0c0.1,0,0.2,0,0.3-0.1V55.8z"/>
		<path fill="#CAC8C7" d="M55.7,54.3h-0.6l0-0.1l1.3-1.4h0.1v0.9h1c0,0.1,0,0.2,0,0.3c0,0.1,0,0.1,0,0.2c0,0,0,0.1,0,0.1h-1v1.7
			c0,0.2,0,0.4,0,0.5c0,0.1,0,0.2,0.1,0.3c0,0.1,0.1,0.1,0.2,0.1s0.2,0,0.3,0c0.1,0,0.2,0,0.2,0c0.1,0,0.1,0,0.2,0
			c0,0.1,0.1,0.2,0.1,0.3c0,0.1,0,0.2,0,0.3c-0.1,0-0.2,0-0.3,0.1s-0.2,0-0.4,0c-0.4,0-0.6-0.1-0.8-0.3s-0.3-0.5-0.3-0.9V54.3z"/>
		<path fill="#CAC8C7" d="M58.9,54.3h-0.5c0,0,0-0.1,0-0.1c0-0.1,0-0.1,0-0.2s0-0.1,0-0.2c0-0.1,0-0.1,0-0.1h1.2v3.8
			c-0.1,0-0.1,0-0.2,0c-0.1,0-0.1,0-0.2,0c0,0-0.1,0-0.2,0s-0.1,0-0.2,0V54.3z M58.7,52.9c0-0.1,0-0.1,0-0.2c0-0.1,0-0.1,0-0.2
			s0-0.1,0-0.2c0-0.1,0-0.1,0-0.2c0.1,0,0.1,0,0.2,0c0.1,0,0.1,0,0.2,0s0.1,0,0.2,0s0.1,0,0.2,0c0,0.1,0,0.1,0,0.2
			c0,0.1,0,0.1,0,0.2s0,0.1,0,0.2c0,0.1,0,0.1,0,0.2c-0.1,0-0.1,0-0.2,0s-0.1,0-0.2,0c-0.1,0-0.1,0-0.2,0
			C58.8,52.9,58.8,52.9,58.7,52.9z"/>
		<path fill="#CAC8C7" d="M60.7,53.7c0.1,0,0.1,0,0.2,0c0.1,0,0.1,0,0.2,0c0.1,0,0.1,0,0.2,0c0.1,0,0.1,0,0.2,0l1,3.2l1.1-3.2
			c0.1,0,0.1,0,0.2,0c0.1,0,0.1,0,0.2,0c0.1,0,0.1,0,0.2,0c0.1,0,0.1,0,0.2,0L63,57.6c-0.1,0-0.1,0-0.2,0s-0.1,0-0.2,0s-0.1,0-0.2,0
			c-0.1,0-0.1,0-0.2,0L60.7,53.7z"/>
		<path fill="#CAC8C7" d="M67.6,55c0-0.3-0.1-0.5-0.2-0.6c-0.1-0.1-0.4-0.2-0.6-0.2c-0.2,0-0.3,0-0.5,0c-0.2,0-0.3,0.1-0.4,0.1
			c-0.1-0.2-0.1-0.4-0.1-0.6c0.2-0.1,0.4-0.1,0.6-0.1s0.4,0,0.6,0c0.5,0,0.9,0.1,1.1,0.3c0.3,0.2,0.4,0.6,0.4,1.1v2.4
			c-0.2,0-0.4,0.1-0.6,0.1c-0.2,0-0.5,0.1-0.8,0.1c-0.2,0-0.5,0-0.7-0.1s-0.4-0.1-0.5-0.2c-0.1-0.1-0.2-0.2-0.3-0.4
			s-0.1-0.3-0.1-0.6c0-0.2,0-0.4,0.1-0.6c0.1-0.2,0.2-0.3,0.4-0.4c0.1-0.1,0.3-0.2,0.5-0.2c0.2-0.1,0.4-0.1,0.6-0.1
			c0.2,0,0.3,0,0.4,0c0.1,0,0.2,0,0.3,0V55z M67.6,55.8c-0.1,0-0.2,0-0.3,0c-0.1,0-0.2,0-0.3,0c-0.3,0-0.5,0.1-0.7,0.2
			c-0.2,0.1-0.2,0.3-0.2,0.5c0,0.1,0,0.3,0.1,0.4s0.1,0.1,0.2,0.2c0.1,0,0.2,0.1,0.3,0.1c0.1,0,0.2,0,0.3,0c0.1,0,0.2,0,0.4,0
			c0.1,0,0.2,0,0.3-0.1V55.8z"/>
		<path fill="#CAC8C7" d="M72,56.7c0.2,0.1,0.3,0.1,0.5,0.2S73,57,73.2,57c0.4,0,0.7-0.1,0.9-0.3s0.3-0.4,0.3-0.7
			c0-0.1,0-0.3-0.1-0.4s-0.1-0.2-0.2-0.3c-0.1-0.1-0.2-0.1-0.3-0.2s-0.3-0.1-0.4-0.2L73,54.9c-0.1-0.1-0.3-0.1-0.4-0.2
			c-0.1-0.1-0.2-0.2-0.3-0.3s-0.2-0.2-0.2-0.4S72,53.7,72,53.6c0-0.5,0.2-0.8,0.5-1.1c0.3-0.3,0.7-0.4,1.3-0.4c0.2,0,0.5,0,0.7,0.1
			s0.4,0.1,0.6,0.1c0,0.2-0.1,0.4-0.2,0.6c-0.1,0-0.3-0.1-0.5-0.1c-0.2,0-0.4-0.1-0.6-0.1c-0.3,0-0.6,0.1-0.7,0.2s-0.3,0.3-0.3,0.6
			c0,0.1,0,0.2,0.1,0.3S73,53.9,73,54c0.1,0.1,0.2,0.1,0.2,0.2s0.2,0.1,0.3,0.1l0.4,0.2c0.2,0.1,0.4,0.2,0.5,0.3
			c0.2,0.1,0.3,0.2,0.4,0.3c0.1,0.1,0.2,0.3,0.3,0.4c0.1,0.2,0.1,0.3,0.1,0.6c0,0.5-0.2,0.9-0.5,1.2c-0.4,0.3-0.8,0.4-1.5,0.4
			c-0.2,0-0.3,0-0.4,0c-0.1,0-0.2,0-0.3,0c-0.1,0-0.2,0-0.3-0.1c-0.1,0-0.2-0.1-0.3-0.1c0-0.1,0-0.2,0.1-0.3C72,57,72,56.9,72,56.7z
			"/>
		<path fill="#CAC8C7" d="M78.6,55c0-0.3-0.1-0.5-0.2-0.6c-0.1-0.1-0.4-0.2-0.6-0.2c-0.2,0-0.3,0-0.5,0c-0.2,0-0.3,0.1-0.4,0.1
			c-0.1-0.2-0.1-0.4-0.1-0.6c0.2-0.1,0.4-0.1,0.6-0.1s0.4,0,0.6,0c0.5,0,0.9,0.1,1.1,0.3c0.3,0.2,0.4,0.6,0.4,1.1v2.4
			c-0.2,0-0.4,0.1-0.6,0.1c-0.2,0-0.5,0.1-0.8,0.1c-0.2,0-0.5,0-0.7-0.1s-0.4-0.1-0.5-0.2c-0.1-0.1-0.2-0.2-0.3-0.4
			s-0.1-0.3-0.1-0.6c0-0.2,0-0.4,0.1-0.6c0.1-0.2,0.2-0.3,0.4-0.4c0.1-0.1,0.3-0.2,0.5-0.2c0.2-0.1,0.4-0.1,0.6-0.1
			c0.2,0,0.3,0,0.4,0c0.1,0,0.2,0,0.3,0V55z M78.6,55.8c-0.1,0-0.2,0-0.3,0c-0.1,0-0.2,0-0.3,0c-0.3,0-0.5,0.1-0.7,0.2
			c-0.2,0.1-0.2,0.3-0.2,0.5c0,0.1,0,0.3,0.1,0.4s0.1,0.1,0.2,0.2c0.1,0,0.2,0.1,0.3,0.1c0.1,0,0.2,0,0.3,0c0.1,0,0.2,0,0.4,0
			c0.1,0,0.2,0,0.3-0.1V55.8z"/>
		<path fill="#CAC8C7" d="M80.9,52.1c0.1,0,0.1,0,0.2,0c0.1,0,0.1,0,0.2,0s0.1,0,0.2,0c0.1,0,0.1,0,0.2,0v4.3c0,0.1,0,0.2,0,0.3
			c0,0.1,0.1,0.1,0.1,0.2c0,0,0.1,0.1,0.1,0.1c0.1,0,0.1,0,0.2,0c0,0,0.1,0,0.2,0c0.1,0,0.1,0,0.1,0c0,0.2,0.1,0.4,0.1,0.6
			c-0.1,0-0.2,0-0.3,0c-0.1,0-0.2,0-0.3,0c-0.1,0-0.3,0-0.4-0.1c-0.1,0-0.2-0.1-0.3-0.2c-0.1-0.1-0.2-0.2-0.2-0.3
			c-0.1-0.1-0.1-0.3-0.1-0.5V52.1z"/>
		<path fill="#CAC8C7" d="M83,53.7c0.1,0,0.1,0,0.2,0s0.1,0,0.2,0c0.1,0,0.1,0,0.2,0s0.1,0,0.2,0l1,3.2l1.1-3.2c0.1,0,0.1,0,0.2,0
			c0.1,0,0.1,0,0.2,0c0.1,0,0.1,0,0.2,0s0.1,0,0.2,0l-1.5,3.8c-0.1,0-0.1,0-0.2,0c-0.1,0-0.1,0-0.2,0s-0.1,0-0.2,0
			c-0.1,0-0.1,0-0.2,0L83,53.7z"/>
		<path fill="#CAC8C7" d="M89.9,55c0-0.3-0.1-0.5-0.2-0.6s-0.4-0.2-0.6-0.2c-0.2,0-0.3,0-0.5,0c-0.2,0-0.3,0.1-0.4,0.1
			c-0.1-0.2-0.1-0.4-0.1-0.6c0.2-0.1,0.4-0.1,0.6-0.1c0.2,0,0.4,0,0.6,0c0.5,0,0.9,0.1,1.1,0.3c0.3,0.2,0.4,0.6,0.4,1.1v2.4
			c-0.2,0-0.4,0.1-0.6,0.1s-0.5,0.1-0.8,0.1c-0.2,0-0.5,0-0.7-0.1s-0.4-0.1-0.5-0.2s-0.2-0.2-0.3-0.4c-0.1-0.2-0.1-0.3-0.1-0.6
			c0-0.2,0-0.4,0.1-0.6c0.1-0.2,0.2-0.3,0.4-0.4c0.1-0.1,0.3-0.2,0.5-0.2c0.2-0.1,0.4-0.1,0.6-0.1c0.2,0,0.3,0,0.4,0
			c0.1,0,0.2,0,0.3,0V55z M89.9,55.8c-0.1,0-0.2,0-0.3,0s-0.2,0-0.3,0c-0.3,0-0.5,0.1-0.7,0.2c-0.2,0.1-0.2,0.3-0.2,0.5
			c0,0.1,0,0.3,0.1,0.4s0.1,0.1,0.2,0.2c0.1,0,0.2,0.1,0.3,0.1c0.1,0,0.2,0,0.3,0c0.1,0,0.2,0,0.4,0s0.2,0,0.3-0.1V55.8z"/>
		<path fill="#CAC8C7" d="M94.6,52.1c0.1,0,0.1,0,0.2,0c0.1,0,0.1,0,0.2,0c0.1,0,0.1,0,0.2,0c0.1,0,0.1,0,0.2,0v5.4
			c-0.2,0.1-0.4,0.1-0.6,0.1c-0.2,0-0.5,0.1-0.8,0.1c-0.3,0-0.5,0-0.8-0.1s-0.5-0.2-0.6-0.3c-0.2-0.2-0.3-0.4-0.4-0.6
			C92,56.4,92,56.1,92,55.7c0-0.3,0-0.6,0.1-0.8c0.1-0.3,0.2-0.5,0.4-0.7s0.4-0.3,0.6-0.4c0.2-0.1,0.5-0.1,0.8-0.1
			c0.1,0,0.3,0,0.4,0c0.1,0,0.2,0,0.3,0.1V52.1z M94.6,54.4c-0.1,0-0.2-0.1-0.3-0.1c-0.1,0-0.2,0-0.4,0c-0.2,0-0.4,0-0.5,0.1
			c-0.1,0.1-0.3,0.2-0.4,0.3c-0.1,0.1-0.2,0.3-0.2,0.5c0,0.2-0.1,0.4-0.1,0.6c0,0.5,0.1,0.8,0.3,1c0.2,0.2,0.5,0.3,0.9,0.3
			c0.1,0,0.2,0,0.4,0c0.1,0,0.2,0,0.3-0.1V54.4z"/>
		<path fill="#CAC8C7" d="M98.5,57.6c-0.3,0-0.6-0.1-0.8-0.2c-0.2-0.1-0.4-0.2-0.6-0.4c-0.1-0.2-0.3-0.4-0.3-0.6
			c-0.1-0.2-0.1-0.5-0.1-0.8s0-0.5,0.1-0.8c0.1-0.2,0.2-0.5,0.3-0.6c0.1-0.2,0.3-0.3,0.6-0.4c0.2-0.1,0.5-0.2,0.8-0.2
			c0.3,0,0.6,0.1,0.8,0.2c0.2,0.1,0.4,0.2,0.6,0.4c0.1,0.2,0.3,0.4,0.3,0.6c0.1,0.2,0.1,0.5,0.1,0.8s0,0.5-0.1,0.8
			c-0.1,0.2-0.2,0.5-0.3,0.6c-0.1,0.2-0.3,0.3-0.6,0.4C99.1,57.6,98.8,57.6,98.5,57.6z M98.5,57.1c0.3,0,0.6-0.1,0.8-0.4
			c0.2-0.2,0.2-0.6,0.2-1s-0.1-0.8-0.2-1s-0.4-0.4-0.8-0.4c-0.3,0-0.6,0.1-0.8,0.4c-0.2,0.2-0.2,0.6-0.2,1s0.1,0.8,0.2,1
			C97.9,56.9,98.2,57.1,98.5,57.1z"/>
		<path fill="#CAC8C7" d="M101.7,53.7c0.1,0,0.1,0,0.2,0s0.1,0,0.2,0s0.1,0,0.2,0s0.1,0,0.1,0c0,0.1,0,0.2,0,0.3c0,0.1,0,0.2,0,0.3
			c0.1-0.2,0.2-0.3,0.4-0.4c0.2-0.1,0.4-0.2,0.7-0.2c0,0,0.1,0,0.1,0c0,0,0.1,0,0.1,0c0,0,0,0.1,0,0.1s0,0.1,0,0.2
			c0,0.1,0,0.1,0,0.2c0,0.1,0,0.1,0,0.2c0,0-0.1,0-0.1,0c0,0-0.1,0-0.1,0c-0.1,0-0.3,0-0.4,0.1c-0.1,0-0.2,0.1-0.3,0.2
			s-0.2,0.2-0.2,0.4c-0.1,0.2-0.1,0.4-0.1,0.6v1.9c-0.1,0-0.1,0-0.2,0c-0.1,0-0.1,0-0.2,0s-0.1,0-0.2,0s-0.1,0-0.2,0V53.7z"/>
		<path fill="#CAC8C7" d="M105.4,55.8c0,0.4,0.1,0.7,0.3,0.9c0.2,0.2,0.5,0.3,0.9,0.3c0.4,0,0.7-0.1,1-0.2c0,0.1,0.1,0.2,0.1,0.3
			c0,0.1,0,0.2,0,0.3c-0.2,0.1-0.3,0.1-0.5,0.2c-0.2,0-0.4,0.1-0.7,0.1c-0.3,0-0.6,0-0.9-0.1c-0.2-0.1-0.5-0.2-0.6-0.4
			c-0.2-0.2-0.3-0.4-0.4-0.6c-0.1-0.2-0.1-0.5-0.1-0.8c0-0.3,0-0.5,0.1-0.8s0.2-0.5,0.3-0.6c0.1-0.2,0.3-0.3,0.6-0.4
			c0.2-0.1,0.5-0.2,0.8-0.2c0.3,0,0.5,0,0.7,0.1c0.2,0.1,0.4,0.2,0.5,0.4c0.1,0.2,0.2,0.3,0.3,0.6c0.1,0.2,0.1,0.5,0.1,0.7
			c0,0.1,0,0.1,0,0.2s0,0.1,0,0.2H105.4z M107.3,55.3c0-0.1,0-0.3-0.1-0.4s-0.1-0.2-0.2-0.3c-0.1-0.1-0.2-0.2-0.3-0.2
			c-0.1-0.1-0.2-0.1-0.4-0.1c-0.3,0-0.5,0.1-0.7,0.3c-0.2,0.2-0.3,0.4-0.3,0.8H107.3z"/>
		<path fill="#CAC8C7" d="M109.4,53.7c0.1,0,0.1,0,0.2,0c0.1,0,0.1,0,0.2,0s0.1,0,0.2,0c0,0,0.1,0,0.2,0c0,0.1,0,0.2,0,0.3
			c0,0.1,0,0.2,0,0.3c0-0.1,0.1-0.2,0.2-0.3c0.1-0.1,0.2-0.2,0.3-0.2s0.2-0.1,0.3-0.2c0.1,0,0.3-0.1,0.4-0.1c0.4,0,0.8,0.1,1,0.4
			s0.3,0.6,0.3,1.1v2.4c-0.1,0-0.1,0-0.2,0c-0.1,0-0.1,0-0.2,0s-0.1,0-0.2,0c-0.1,0-0.1,0-0.2,0v-2.2c0-0.4-0.1-0.6-0.2-0.8
			c-0.1-0.2-0.3-0.3-0.5-0.3c-0.1,0-0.3,0-0.4,0.1s-0.2,0.1-0.3,0.2c-0.1,0.1-0.2,0.2-0.2,0.4c-0.1,0.2-0.1,0.4-0.1,0.6v1.9
			c-0.1,0-0.1,0-0.2,0s-0.1,0-0.2,0s-0.1,0-0.2,0c-0.1,0-0.1,0-0.2,0V53.7z M109.7,52.6c0.1-0.1,0.2-0.2,0.3-0.3
			c0.1-0.1,0.3-0.1,0.4-0.1c0.1,0,0.2,0,0.3,0.1s0.2,0.1,0.3,0.1c0.1,0,0.2,0.1,0.3,0.1c0.1,0,0.2,0.1,0.3,0.1c0.1,0,0.2,0,0.2,0
			c0.1,0,0.2-0.1,0.3-0.2c0.1,0.1,0.2,0.3,0.2,0.5c-0.1,0.1-0.2,0.2-0.3,0.2s-0.3,0.1-0.4,0.1c-0.1,0-0.2,0-0.3-0.1
			c-0.1,0-0.2-0.1-0.3-0.1c-0.1,0-0.2-0.1-0.3-0.1c-0.1,0-0.2-0.1-0.3-0.1c-0.1,0-0.2,0-0.3,0.1c-0.1,0-0.2,0.1-0.3,0.2
			c-0.1-0.1-0.1-0.1-0.1-0.2C109.8,52.7,109.7,52.7,109.7,52.6z"/>
		<path fill="#CAC8C7" d="M116.2,55c0-0.3-0.1-0.5-0.2-0.6s-0.4-0.2-0.6-0.2c-0.2,0-0.3,0-0.5,0c-0.2,0-0.3,0.1-0.4,0.1
			c-0.1-0.2-0.1-0.4-0.1-0.6c0.2-0.1,0.4-0.1,0.6-0.1c0.2,0,0.4,0,0.6,0c0.5,0,0.9,0.1,1.1,0.3c0.3,0.2,0.4,0.6,0.4,1.1v2.4
			c-0.2,0-0.4,0.1-0.6,0.1s-0.5,0.1-0.8,0.1c-0.2,0-0.5,0-0.7-0.1s-0.4-0.1-0.5-0.2s-0.2-0.2-0.3-0.4c-0.1-0.2-0.1-0.3-0.1-0.6
			c0-0.2,0-0.4,0.1-0.6c0.1-0.2,0.2-0.3,0.4-0.4c0.1-0.1,0.3-0.2,0.5-0.2c0.2-0.1,0.4-0.1,0.6-0.1c0.2,0,0.3,0,0.4,0
			c0.1,0,0.2,0,0.3,0V55z M116.2,55.8c-0.1,0-0.2,0-0.3,0s-0.2,0-0.3,0c-0.3,0-0.5,0.1-0.7,0.2c-0.2,0.1-0.2,0.3-0.2,0.5
			c0,0.1,0,0.3,0.1,0.4s0.1,0.1,0.2,0.2c0.1,0,0.2,0.1,0.3,0.1c0.1,0,0.2,0,0.3,0c0.1,0,0.2,0,0.4,0s0.2,0,0.3-0.1V55.8z"/>
	</g>
</g>
</svg>
